<?xml version="1.0"?>
<svg xmlns="http://www.w3.org/2000/svg" id="Layer_1" data-name="Layer 1" viewBox="0 0 512 512" width="512" height="512"><title>Heart</title><path d="M482.7,161.136c-13.619-67.5-62.385-111.117-124.236-111.117-32.6,0-67.9,12.625-102.4,36.569-34.983-25.011-69.64-37.683-103.1-37.683-62.2,0-110.756,44.089-123.693,112.305-18.958,98.813,41.159,229.961,218.2,300.207q.207.083.42.153a22.271,22.271,0,0,0,16.2,0c.16-.053.317-.112.473-.174,81.224-32.908,144.224-81.144,182.191-139.495,33.352-51.259,46.122-108.333,35.955-160.708ZM433.343,313.175C397.21,368.708,336.857,414.8,258.809,446.464a12.62,12.62,0,0,1-2.816.631,12.655,12.655,0,0,1-2.847-.639C84.772,379.564,27.273,256.526,44.985,164.208c5.687-29.984,18.869-55.129,38.12-72.715,19.041-17.394,43.2-26.588,69.857-26.588,31.434,0,64.488,12.769,98.244,37.953a8,8,0,0,0,9.483.062c33.261-24.141,67.07-36.9,97.772-36.9,26.595,0,50.786,9.156,69.959,26.478,19.281,17.419,32.625,42.239,38.589,71.78C476.368,212.547,464.412,265.425,433.343,313.175Z"/><path d="M169.726,107.934c-43.123,0-71.977,29.617-81.247,83.4A8,8,0,0,0,95,200.572a7.989,7.989,0,0,0,9.243-6.525c5.514-31.985,21.35-70.113,65.48-70.113a8,8,0,0,0,0-16Z"/></svg>
