<svg height="653pt" viewBox="-57 -20 653 653.33268" width="653pt" xmlns="http://www.w3.org/2000/svg"><path d="m53.167969 351.234375c-6.933594.070313-12.511719 5.714844-12.496094 12.648437 0 137.019532 111.472656 248.574219 248.5 248.574219 1.730469 0 3.457031 0 5.179687-.03125.261719.015625.523438.074219.785157.074219.539062 0 1.070312-.035156 1.601562-.109375 133.535157-4.011719 240.933594-113.875 240.933594-248.367187 0-134.414063-107.273437-244.226563-240.699219-248.367188-.980468-.144531-1.976562-.167969-2.964844-.070312-1.609374-.035157-3.320312-.0625-4.941406-.0625-6.917968-.003907-12.546875 5.574218-12.59375 12.5v223.210937zm459.148437 0h-76.175781c-.839844-29.855469-5.703125-59.464844-14.457031-88.027344 16.132812-10.183593 31.035156-22.195312 44.414062-35.792969 27.582032 35.648438 43.695313 78.824219 46.21875 123.820313zm-46.21875 149.042969c-13.378906-13.597656-28.285156-25.609375-44.414062-35.792969 8.753906-28.636719 13.617187-58.320313 14.457031-88.25h76.175781c-2.523437 45.066406-18.636718 88.3125-46.21875 124.042969zm-66.898437-48.253906c-30.472657-15.097657-63.757813-23.675782-97.730469-25.191407v-50.597656h109.640625c-.765625 25.664063-4.769531 51.125-11.910156 75.789063zm-122.726563 130.4375c-40-22.957032-71.015625-60.054688-89.53125-106.667969 27.824219-14.210938 58.328125-22.382813 89.53125-23.980469zm24.996094 0v-130.59375c31.171875 1.734374 61.632812 9.964843 89.4375 24.164062-18.527344 46.5-49.4375 83.511719-89.4375 106.429688zm-24.996094-155.671876c-33.90625 1.535157-67.132812 10.035157-97.609375 24.976563-7.027343-24.589844-10.9375-49.964844-11.636719-75.53125h109.246094zm-164.273437 73.441407c-27.5625-35.71875-43.660157-78.949219-46.179688-123.996094h76.175781c.832032 29.847656 5.671876 59.449219 14.382813 88.007813-16.136719 10.230468-31.035156 22.308593-44.378906 35.988281zm16.417969 19.125c11.070312-11.550781 23.371093-21.859375 36.675781-30.753907 14.875 36.03125 36.523437 66.882813 63.957031 90.757813-38.285156-10.707031-73.019531-31.421875-100.632812-60.015625zm220.476562 60.003906c27.371094-23.824219 49-54.601563 63.867188-90.53125 13.296874 8.84375 25.613281 19.085937 36.726562 30.554687-27.605469 28.574219-62.332031 49.277344-100.59375 59.976563zm100.59375-370.691406c-11.109375 11.476562-23.421875 21.71875-36.722656 30.566406-14.867188-35.933594-36.480469-66.707031-63.855469-90.539063 38.253906 10.707032 72.972656 31.40625 100.570313 59.972657zm-148.21875-63.085938c40 22.921875 70.917969 59.941407 89.441406 106.445313-27.800781 14.203125-58.265625 22.4375-89.441406 24.167968zm0 155.636719c33.992188-1.621094 67.277344-10.296875 97.738281-25.476562 7.039063 24.582031 11.039063 49.9375 11.902344 75.492187h-109.640625zm0 0"/><path d="m117.992188 329.113281c2.355468 2.875 5.859374 4.566407 9.574218 4.625h.007813c3.71875-.058593 7.21875-1.746093 9.578125-4.609375l84.203125-100.386718c51.023437-52.558594 51.496093-137.578126.960937-189.753907-23.960937-24.976562-57.101562-39.0624998-91.714844-38.988281h-.023437c-35.476563.00390625-69.410156 14.511719-93.925781 40.15625-51.25 52.417969-51.941406 137.503906-1.621094 189.820312zm-63.425782-271.519531c19.824219-20.785156 47.28125-32.558594 76.007813-32.59375h.019531c27.839844-.0625 54.496094 11.257812 73.769531 31.34375 41.308594 42.65625 40.761719 112.273438-1.21875 155.210938-.226562.222656-.433593.453124-.640625.691406l-74.917968 89.242187-73.675782-87.984375c-.1875-.234375-.394531-.445312-.605468-.660156-41.304688-42.648438-40.757813-112.269531 1.261718-155.25zm0 0"/><path d="m128.835938 195.414062c37.847656 0 68.535156-30.6875 68.53125-68.539062 0-37.851562-30.683594-68.53125-68.53125-68.53125-37.851563 0-68.539063 30.679688-68.539063 68.535156.046875 37.832032 30.707031 68.488282 68.539063 68.535156zm0-112.074218c24.042968 0 43.53125 19.492187 43.53125 43.539062 0 24.042969-19.488282 43.535156-43.53125 43.535156-24.042969 0-43.539063-19.492187-43.539063-43.535156.03125-24.035156 19.507813-43.507812 43.539063-43.539062zm0 0"/></svg>