<svg height="448pt" viewBox="-48 0 448 448.001" width="448pt" xmlns="http://www.w3.org/2000/svg"><path d="m173.144531 188.832031c52.144531 0 94.417969-42.273437 94.417969-94.417969 0-52.144531-42.273438-94.414062-94.417969-94.414062s-94.414062 42.273438-94.414062 94.417969c.058593 52.117187 42.296875 94.355469 94.414062 94.414062zm0-168.832031c41.101563 0 74.417969 33.316406 74.417969 74.417969 0 41.097656-33.316406 74.414062-74.417969 74.414062-41.097656 0-74.414062-33.316406-74.414062-74.414062.046875-41.082031 33.335937-74.371094 74.414062-74.417969zm0 0"/><path d="m175.609375 222.089844c-97.003906-.039063-175.6484375 78.609375-175.609375 175.609375v40.300781c0 5.523438 4.476562 10 10 10h331.21875c5.523438 0 10-4.476562 10-10v-40.300781c.042969-97-78.605469-175.648438-175.609375-175.609375zm155.609375 205.910156h-311.21875v-30.300781c-.140625-55.6875 29.488281-107.203125 77.691406-135.089844 48.203125-27.882813 107.632813-27.882813 155.839844 0 48.203125 27.886719 77.832031 79.402344 77.6875 135.089844zm0 0"/></svg>