<svg height="467.3617pt" viewBox="0 0 467.3617 467.3617" width="467.3617pt" xmlns="http://www.w3.org/2000/svg"><path d="m331.078125 265.242188c15.386719-26.773438 23.460937-57.117188 23.425781-87.992188 0-97.734375-79.515625-177.25-177.25-177.25-97.738281 0-177.253906 79.515625-177.253906 177.25 0 97.738281 79.515625 177.253906 177.25 177.253906 30.875.035156 61.21875-8.039062 87.988281-23.425781l122.648438 122.648437c18.179687 18.179688 47.660156 18.179688 65.839843 0 18.179688-18.179687 18.179688-47.660156 0-65.839843zm-311.078125-87.992188c0-86.707031 70.542969-157.25 157.25-157.25 86.710938 0 157.253906 70.542969 157.253906 157.25 0 86.710938-70.542968 157.253906-157.253906 157.253906-86.707031 0-157.25-70.542968-157.25-157.253906zm299.898438 105.09375 41.964843 41.960938-37.554687 37.554687-41.960938-41.960937c14.316406-10.582032 26.972656-23.238282 37.546875-37.554688zm119.679687 157.234375c-10.371094 10.355469-27.171875 10.355469-37.546875 0l-63.585938-63.578125 37.554688-37.554688 63.578125 63.585938c10.355469 10.375 10.355469 27.171875 0 37.546875zm0 0"/></svg>